<?xml version="1.0" encoding="utf-8"?>
<!-- Generator: Adobe Illustrator 22.1.0, SVG Export Plug-In . SVG Version: 6.00 Build 0)  -->
<svg version="1.1" id="Calque_1" xmlns="http://www.w3.org/2000/svg" xmlns:xlink="http://www.w3.org/1999/xlink" x="0px" y="0px"
	 viewBox="0 0 26.7 26.7" style="enable-background:new 0 0 26.7 26.7;" xml:space="preserve">
<style type="text/css">
	.st0{fill:#FFFFFF;}
</style>
<g>
	<g>
		<path class="st0" d="M13.1,0.1c-7.2,0-13,5.8-13,13s5.8,13,13,13s13-5.8,13-13S20.3,0.1,13.1,0.1z M13.1,24.1c-6.1,0-11-4.9-11-11
			s4.9-11,11-11s11,4.9,11,11S19.2,24.1,13.1,24.1z"/>
	</g>
	<g>
		<path class="st0" d="M19.8,12.1h-5.7V6.4c0-0.2-0.1-0.3-0.3-0.3h-1.4c-0.2,0-0.3,0.1-0.3,0.3v5.7H6.4c-0.2,0-0.3,0.1-0.3,0.3v1.4
			c0,0.2,0.1,0.3,0.3,0.3h5.7v5.7c0,0.2,0.1,0.3,0.3,0.3h1.4c0.2,0,0.3-0.1,0.3-0.3v-5.7h5.7c0.2,0,0.3-0.1,0.3-0.3v-1.4
			C20.1,12.2,20,12.1,19.8,12.1z"/>
	</g>
</g>
</svg>
